<?xml version="1.0" standalone="no"?>
<!DOCTYPE svg PUBLIC "-//W3C//DTD SVG 20010904//EN"
 "http://www.w3.org/TR/2001/REC-SVG-20010904/DTD/svg10.dtd">
<svg version="1.0" xmlns="http://www.w3.org/2000/svg"
 width="256.000000pt" height="256.000000pt" viewBox="0 0 256.000000 256.000000"
 preserveAspectRatio="xMidYMid meet">
<metadata>
Created by potrace 1.11, written by Peter Selinger 2001-2013
</metadata>
<g transform="translate(0.000000,256.000000) scale(0.100000,-0.100000)"
fill="#000000" stroke="none">
<path d="M515 2524 c-135 -31 -313 -152 -370 -251 -11 -18 -22 -33 -26 -33
-14 0 -78 -168 -88 -230 -15 -88 -15 -1372 0 -1460 10 -62 74 -230 88 -230 4
0 15 -15 25 -32 10 -18 48 -61 84 -95 78 -76 213 -145 313 -162 38 -6 196 -11
377 -11 l312 0 0 1260 0 1260 -327 -1 c-244 0 -343 -4 -388 -15z m515 -1244
l0 -1060 -207 0 c-193 0 -213 2 -290 25 -46 14 -83 30 -83 35 0 5 -9 12 -20
15 -23 7 -104 85 -135 129 -11 15 -31 56 -45 90 l-25 61 0 700 c0 644 1 704
18 748 19 53 43 102 61 125 23 31 107 112 116 112 5 0 16 8 25 17 10 9 52 27
94 39 68 21 98 23 284 23 l207 1 0 -1060z"/>
<path d="M563 2007 c-48 -18 -111 -80 -133 -132 -51 -119 7 -260 126 -310 80
-33 190 -12 257 49 66 60 87 183 47 274 -23 52 -86 107 -141 122 -45 13 -116
11 -156 -3z"/>
<path d="M1485 2528 c-3 -7 -4 -573 -3 -1258 l3 -1245 225 -3 c254 -4 333 5
428 49 35 16 68 29 73 29 5 0 9 4 9 8 0 4 15 16 33 26 47 27 133 113 174 173
19 29 49 87 66 130 l32 78 0 765 0 765 -32 78 c-40 98 -87 168 -155 232 -90
86 -195 143 -308 170 -86 20 -538 22 -545 3z m602 -1144 c46 -18 121 -99 133
-142 13 -47 13 -127 0 -173 -14 -51 -74 -116 -133 -145 -120 -57 -268 -8 -330
111 -31 59 -30 173 2 238 27 57 96 112 156 126 47 11 126 4 172 -15z"/>
</g>
</svg>
